<mxfile host="Electron" agent="Mozilla/5.0 (Windows NT 10.0; Win64; x64) AppleWebKit/537.36 (KHTML, like Gecko) draw.io/24.7.17 Chrome/128.0.6613.36 Electron/32.0.1 Safari/537.36" version="24.7.17">
  <diagram name="Страница — 1" id="kYXAjykHZ7thILa3HCrF">
    <mxGraphModel dx="1614" dy="1392" grid="1" gridSize="10" guides="1" tooltips="1" connect="1" arrows="1" fold="1" page="1" pageScale="1" pageWidth="827" pageHeight="1169" math="0" shadow="0">
      <root>
        <mxCell id="0" />
        <mxCell id="1" parent="0" />
        <mxCell id="JEXxJmJUqQq23T9oJtIg-4" style="edgeStyle=orthogonalEdgeStyle;rounded=0;orthogonalLoop=1;jettySize=auto;html=1;exitX=0.5;exitY=1;exitDx=0;exitDy=0;entryX=0.5;entryY=0;entryDx=0;entryDy=0;" edge="1" parent="1" source="JEXxJmJUqQq23T9oJtIg-2" target="JEXxJmJUqQq23T9oJtIg-3">
          <mxGeometry relative="1" as="geometry" />
        </mxCell>
        <mxCell id="JEXxJmJUqQq23T9oJtIg-2" value="Начало" style="ellipse;whiteSpace=wrap;html=1;" vertex="1" parent="1">
          <mxGeometry x="180" y="40" width="120" height="80" as="geometry" />
        </mxCell>
        <mxCell id="JEXxJmJUqQq23T9oJtIg-9" style="edgeStyle=orthogonalEdgeStyle;rounded=0;orthogonalLoop=1;jettySize=auto;html=1;exitX=0.5;exitY=1;exitDx=0;exitDy=0;entryX=0.5;entryY=0;entryDx=0;entryDy=0;" edge="1" parent="1" source="JEXxJmJUqQq23T9oJtIg-3" target="JEXxJmJUqQq23T9oJtIg-8">
          <mxGeometry relative="1" as="geometry" />
        </mxCell>
        <mxCell id="JEXxJmJUqQq23T9oJtIg-3" value="bool flag_pos = false, flag_neg = false;" style="rounded=0;whiteSpace=wrap;html=1;" vertex="1" parent="1">
          <mxGeometry x="180" y="160" width="120" height="60" as="geometry" />
        </mxCell>
        <mxCell id="JEXxJmJUqQq23T9oJtIg-6" value="&lt;div&gt;#include &amp;lt;iostream&amp;gt;&lt;/div&gt;&lt;div&gt;using namespace std;&lt;/div&gt;&lt;div&gt;int main()&lt;/div&gt;&lt;div&gt;{&lt;/div&gt;&lt;div&gt;&lt;span style=&quot;white-space-collapse: collapse;&quot;&gt;&lt;span style=&quot;white-space-collapse: preserve;&quot;&gt;&#x9;&lt;/span&gt;setlocale(LC_ALL, &quot;Russian&quot;);&lt;/span&gt;&lt;/div&gt;&lt;div&gt;&lt;span style=&quot;white-space-collapse: collapse;&quot;&gt;&lt;span style=&quot;white-space-collapse: preserve;&quot;&gt;&#x9;&lt;/span&gt;int n, tmp;&lt;/span&gt;&lt;/div&gt;" style="strokeWidth=2;html=1;shape=mxgraph.flowchart.annotation_1;align=left;pointerEvents=1;" vertex="1" parent="1">
          <mxGeometry x="320" y="80" width="50" height="100" as="geometry" />
        </mxCell>
        <mxCell id="JEXxJmJUqQq23T9oJtIg-7" value="" style="endArrow=none;dashed=1;html=1;dashPattern=1 3;strokeWidth=2;rounded=0;" edge="1" parent="1" source="JEXxJmJUqQq23T9oJtIg-6">
          <mxGeometry width="50" height="50" relative="1" as="geometry">
            <mxPoint x="240" y="350" as="sourcePoint" />
            <mxPoint x="240" y="130" as="targetPoint" />
          </mxGeometry>
        </mxCell>
        <mxCell id="JEXxJmJUqQq23T9oJtIg-11" style="edgeStyle=orthogonalEdgeStyle;rounded=0;orthogonalLoop=1;jettySize=auto;html=1;exitX=0.5;exitY=1;exitDx=0;exitDy=0;entryX=0.5;entryY=0;entryDx=0;entryDy=0;" edge="1" parent="1" source="JEXxJmJUqQq23T9oJtIg-8" target="JEXxJmJUqQq23T9oJtIg-10">
          <mxGeometry relative="1" as="geometry" />
        </mxCell>
        <mxCell id="JEXxJmJUqQq23T9oJtIg-8" value="cout &amp;lt;&amp;lt; &quot;Введите длину последовательности: \n&quot;;" style="shape=parallelogram;perimeter=parallelogramPerimeter;whiteSpace=wrap;html=1;fixedSize=1;" vertex="1" parent="1">
          <mxGeometry x="180" y="240" width="120" height="60" as="geometry" />
        </mxCell>
        <mxCell id="JEXxJmJUqQq23T9oJtIg-13" style="edgeStyle=orthogonalEdgeStyle;rounded=0;orthogonalLoop=1;jettySize=auto;html=1;exitX=0.5;exitY=1;exitDx=0;exitDy=0;entryX=0.5;entryY=0;entryDx=0;entryDy=0;" edge="1" parent="1" source="JEXxJmJUqQq23T9oJtIg-10" target="JEXxJmJUqQq23T9oJtIg-12">
          <mxGeometry relative="1" as="geometry" />
        </mxCell>
        <mxCell id="JEXxJmJUqQq23T9oJtIg-10" value="cin &amp;gt;&amp;gt; n;" style="shape=parallelogram;perimeter=parallelogramPerimeter;whiteSpace=wrap;html=1;fixedSize=1;" vertex="1" parent="1">
          <mxGeometry x="180" y="320" width="120" height="60" as="geometry" />
        </mxCell>
        <mxCell id="JEXxJmJUqQq23T9oJtIg-15" style="edgeStyle=orthogonalEdgeStyle;rounded=0;orthogonalLoop=1;jettySize=auto;html=1;exitX=0.5;exitY=1;exitDx=0;exitDy=0;entryX=0.5;entryY=0;entryDx=0;entryDy=0;" edge="1" parent="1" source="JEXxJmJUqQq23T9oJtIg-12" target="JEXxJmJUqQq23T9oJtIg-14">
          <mxGeometry relative="1" as="geometry" />
        </mxCell>
        <mxCell id="JEXxJmJUqQq23T9oJtIg-33" style="edgeStyle=orthogonalEdgeStyle;rounded=0;orthogonalLoop=1;jettySize=auto;html=1;exitX=1;exitY=0.5;exitDx=0;exitDy=0;" edge="1" parent="1" source="JEXxJmJUqQq23T9oJtIg-12" target="JEXxJmJUqQq23T9oJtIg-31">
          <mxGeometry relative="1" as="geometry">
            <Array as="points">
              <mxPoint x="480" y="440" />
              <mxPoint x="480" y="910" />
              <mxPoint x="240" y="910" />
            </Array>
          </mxGeometry>
        </mxCell>
        <mxCell id="JEXxJmJUqQq23T9oJtIg-12" value="for (int i = 1; i &amp;lt;= n; i++)" style="shape=hexagon;perimeter=hexagonPerimeter2;whiteSpace=wrap;html=1;fixedSize=1;" vertex="1" parent="1">
          <mxGeometry x="180" y="400" width="120" height="80" as="geometry" />
        </mxCell>
        <mxCell id="JEXxJmJUqQq23T9oJtIg-17" style="edgeStyle=orthogonalEdgeStyle;rounded=0;orthogonalLoop=1;jettySize=auto;html=1;exitX=0.5;exitY=1;exitDx=0;exitDy=0;entryX=0.5;entryY=0;entryDx=0;entryDy=0;" edge="1" parent="1" source="JEXxJmJUqQq23T9oJtIg-14" target="JEXxJmJUqQq23T9oJtIg-16">
          <mxGeometry relative="1" as="geometry" />
        </mxCell>
        <mxCell id="JEXxJmJUqQq23T9oJtIg-14" value="cin &amp;gt;&amp;gt; tmp;" style="shape=parallelogram;perimeter=parallelogramPerimeter;whiteSpace=wrap;html=1;fixedSize=1;" vertex="1" parent="1">
          <mxGeometry x="180" y="510" width="120" height="60" as="geometry" />
        </mxCell>
        <mxCell id="JEXxJmJUqQq23T9oJtIg-19" style="edgeStyle=orthogonalEdgeStyle;rounded=0;orthogonalLoop=1;jettySize=auto;html=1;exitX=0;exitY=0.5;exitDx=0;exitDy=0;entryX=0.5;entryY=0;entryDx=0;entryDy=0;" edge="1" parent="1" source="JEXxJmJUqQq23T9oJtIg-16" target="JEXxJmJUqQq23T9oJtIg-18">
          <mxGeometry relative="1" as="geometry" />
        </mxCell>
        <mxCell id="JEXxJmJUqQq23T9oJtIg-22" style="edgeStyle=orthogonalEdgeStyle;rounded=0;orthogonalLoop=1;jettySize=auto;html=1;exitX=1;exitY=0.5;exitDx=0;exitDy=0;" edge="1" parent="1" source="JEXxJmJUqQq23T9oJtIg-16" target="JEXxJmJUqQq23T9oJtIg-21">
          <mxGeometry relative="1" as="geometry" />
        </mxCell>
        <mxCell id="JEXxJmJUqQq23T9oJtIg-16" value="if (!flag_pos &amp;amp;&amp;amp; !flag_neg &amp;amp;&amp;amp; tmp != 0)" style="rhombus;whiteSpace=wrap;html=1;" vertex="1" parent="1">
          <mxGeometry x="125" y="590" width="230" height="80" as="geometry" />
        </mxCell>
        <mxCell id="JEXxJmJUqQq23T9oJtIg-25" style="edgeStyle=orthogonalEdgeStyle;rounded=0;orthogonalLoop=1;jettySize=auto;html=1;exitX=0;exitY=0.5;exitDx=0;exitDy=0;" edge="1" parent="1" source="JEXxJmJUqQq23T9oJtIg-18" target="JEXxJmJUqQq23T9oJtIg-24">
          <mxGeometry relative="1" as="geometry" />
        </mxCell>
        <mxCell id="JEXxJmJUqQq23T9oJtIg-28" style="edgeStyle=orthogonalEdgeStyle;rounded=0;orthogonalLoop=1;jettySize=auto;html=1;exitX=1;exitY=0.5;exitDx=0;exitDy=0;" edge="1" parent="1" source="JEXxJmJUqQq23T9oJtIg-18">
          <mxGeometry relative="1" as="geometry">
            <mxPoint x="-80" y="890" as="targetPoint" />
            <Array as="points">
              <mxPoint x="210" y="740" />
              <mxPoint x="210" y="890" />
            </Array>
          </mxGeometry>
        </mxCell>
        <mxCell id="JEXxJmJUqQq23T9oJtIg-18" value="if (tmp &amp;gt; 0)&amp;nbsp;" style="rhombus;whiteSpace=wrap;html=1;" vertex="1" parent="1">
          <mxGeometry x="-40" y="700" width="230" height="80" as="geometry" />
        </mxCell>
        <mxCell id="JEXxJmJUqQq23T9oJtIg-20" value="1&lt;div&gt;&lt;br&gt;&lt;/div&gt;" style="text;html=1;align=center;verticalAlign=middle;resizable=0;points=[];autosize=1;strokeColor=none;fillColor=none;" vertex="1" parent="1">
          <mxGeometry x="60" y="610" width="30" height="40" as="geometry" />
        </mxCell>
        <mxCell id="JEXxJmJUqQq23T9oJtIg-30" style="edgeStyle=orthogonalEdgeStyle;rounded=0;orthogonalLoop=1;jettySize=auto;html=1;exitX=0.5;exitY=1;exitDx=0;exitDy=0;" edge="1" parent="1" source="JEXxJmJUqQq23T9oJtIg-21">
          <mxGeometry relative="1" as="geometry">
            <mxPoint x="210" y="890" as="targetPoint" />
            <Array as="points">
              <mxPoint x="380" y="890" />
            </Array>
          </mxGeometry>
        </mxCell>
        <mxCell id="JEXxJmJUqQq23T9oJtIg-21" value="{flag_neg = true;}" style="rounded=0;whiteSpace=wrap;html=1;" vertex="1" parent="1">
          <mxGeometry x="320" y="710" width="120" height="60" as="geometry" />
        </mxCell>
        <mxCell id="JEXxJmJUqQq23T9oJtIg-23" value="0" style="text;html=1;align=center;verticalAlign=middle;resizable=0;points=[];autosize=1;strokeColor=none;fillColor=none;" vertex="1" parent="1">
          <mxGeometry x="365" y="598" width="30" height="30" as="geometry" />
        </mxCell>
        <mxCell id="JEXxJmJUqQq23T9oJtIg-27" style="edgeStyle=orthogonalEdgeStyle;rounded=0;orthogonalLoop=1;jettySize=auto;html=1;exitX=0.5;exitY=1;exitDx=0;exitDy=0;entryX=0;entryY=0.5;entryDx=0;entryDy=0;" edge="1" parent="1" source="JEXxJmJUqQq23T9oJtIg-24" target="JEXxJmJUqQq23T9oJtIg-12">
          <mxGeometry relative="1" as="geometry">
            <Array as="points">
              <mxPoint x="-80" y="890" />
              <mxPoint x="-160" y="890" />
              <mxPoint x="-160" y="440" />
            </Array>
          </mxGeometry>
        </mxCell>
        <mxCell id="JEXxJmJUqQq23T9oJtIg-24" value="{flag_pos = true;}" style="rounded=0;whiteSpace=wrap;html=1;" vertex="1" parent="1">
          <mxGeometry x="-140" y="810" width="120" height="60" as="geometry" />
        </mxCell>
        <mxCell id="JEXxJmJUqQq23T9oJtIg-26" value="1" style="text;html=1;align=center;verticalAlign=middle;resizable=0;points=[];autosize=1;strokeColor=none;fillColor=none;" vertex="1" parent="1">
          <mxGeometry x="-95" y="708" width="30" height="30" as="geometry" />
        </mxCell>
        <mxCell id="JEXxJmJUqQq23T9oJtIg-29" value="0" style="text;html=1;align=center;verticalAlign=middle;resizable=0;points=[];autosize=1;strokeColor=none;fillColor=none;" vertex="1" parent="1">
          <mxGeometry x="195" y="708" width="30" height="30" as="geometry" />
        </mxCell>
        <mxCell id="JEXxJmJUqQq23T9oJtIg-36" style="edgeStyle=orthogonalEdgeStyle;rounded=0;orthogonalLoop=1;jettySize=auto;html=1;exitX=0;exitY=0.5;exitDx=0;exitDy=0;entryX=0.5;entryY=0;entryDx=0;entryDy=0;" edge="1" parent="1" source="JEXxJmJUqQq23T9oJtIg-31" target="JEXxJmJUqQq23T9oJtIg-34">
          <mxGeometry relative="1" as="geometry" />
        </mxCell>
        <mxCell id="JEXxJmJUqQq23T9oJtIg-39" style="edgeStyle=orthogonalEdgeStyle;rounded=0;orthogonalLoop=1;jettySize=auto;html=1;exitX=1;exitY=0.5;exitDx=0;exitDy=0;entryX=0.5;entryY=0;entryDx=0;entryDy=0;" edge="1" parent="1" source="JEXxJmJUqQq23T9oJtIg-31" target="JEXxJmJUqQq23T9oJtIg-38">
          <mxGeometry relative="1" as="geometry" />
        </mxCell>
        <mxCell id="JEXxJmJUqQq23T9oJtIg-31" value="if (flag_pos)" style="rhombus;whiteSpace=wrap;html=1;" vertex="1" parent="1">
          <mxGeometry x="125" y="940" width="230" height="80" as="geometry" />
        </mxCell>
        <mxCell id="JEXxJmJUqQq23T9oJtIg-48" style="edgeStyle=orthogonalEdgeStyle;rounded=0;orthogonalLoop=1;jettySize=auto;html=1;exitX=0.5;exitY=1;exitDx=0;exitDy=0;" edge="1" parent="1" source="JEXxJmJUqQq23T9oJtIg-34" target="JEXxJmJUqQq23T9oJtIg-47">
          <mxGeometry relative="1" as="geometry">
            <Array as="points">
              <mxPoint x="60" y="1240" />
              <mxPoint x="240" y="1240" />
            </Array>
          </mxGeometry>
        </mxCell>
        <mxCell id="JEXxJmJUqQq23T9oJtIg-34" value="cout &amp;lt;&amp;lt; &quot;Сначала ввели положительное число&quot;;" style="shape=parallelogram;perimeter=parallelogramPerimeter;whiteSpace=wrap;html=1;fixedSize=1;" vertex="1" parent="1">
          <mxGeometry y="1050" width="120" height="60" as="geometry" />
        </mxCell>
        <mxCell id="JEXxJmJUqQq23T9oJtIg-37" value="1" style="text;html=1;align=center;verticalAlign=middle;resizable=0;points=[];autosize=1;strokeColor=none;fillColor=none;" vertex="1" parent="1">
          <mxGeometry x="55" y="948" width="30" height="30" as="geometry" />
        </mxCell>
        <mxCell id="JEXxJmJUqQq23T9oJtIg-42" style="edgeStyle=orthogonalEdgeStyle;rounded=0;orthogonalLoop=1;jettySize=auto;html=1;exitX=0;exitY=0.5;exitDx=0;exitDy=0;entryX=0.5;entryY=0;entryDx=0;entryDy=0;" edge="1" parent="1" source="JEXxJmJUqQq23T9oJtIg-38" target="JEXxJmJUqQq23T9oJtIg-41">
          <mxGeometry relative="1" as="geometry" />
        </mxCell>
        <mxCell id="JEXxJmJUqQq23T9oJtIg-45" style="edgeStyle=orthogonalEdgeStyle;rounded=0;orthogonalLoop=1;jettySize=auto;html=1;exitX=1;exitY=0.5;exitDx=0;exitDy=0;" edge="1" parent="1" source="JEXxJmJUqQq23T9oJtIg-38" target="JEXxJmJUqQq23T9oJtIg-44">
          <mxGeometry relative="1" as="geometry" />
        </mxCell>
        <mxCell id="JEXxJmJUqQq23T9oJtIg-38" value="if (flag_neg)" style="rhombus;whiteSpace=wrap;html=1;" vertex="1" parent="1">
          <mxGeometry x="265" y="1030" width="230" height="80" as="geometry" />
        </mxCell>
        <mxCell id="JEXxJmJUqQq23T9oJtIg-40" value="0" style="text;html=1;align=center;verticalAlign=middle;resizable=0;points=[];autosize=1;strokeColor=none;fillColor=none;" vertex="1" parent="1">
          <mxGeometry x="365" y="948" width="30" height="30" as="geometry" />
        </mxCell>
        <mxCell id="JEXxJmJUqQq23T9oJtIg-49" style="edgeStyle=orthogonalEdgeStyle;rounded=0;orthogonalLoop=1;jettySize=auto;html=1;exitX=0.5;exitY=1;exitDx=0;exitDy=0;" edge="1" parent="1" source="JEXxJmJUqQq23T9oJtIg-41">
          <mxGeometry relative="1" as="geometry">
            <mxPoint x="239.99999999999977" y="1260" as="targetPoint" />
          </mxGeometry>
        </mxCell>
        <mxCell id="JEXxJmJUqQq23T9oJtIg-41" value="cout &amp;lt;&amp;lt; &quot;Сначала ввели отрицательное число&quot;" style="shape=parallelogram;perimeter=parallelogramPerimeter;whiteSpace=wrap;html=1;fixedSize=1;" vertex="1" parent="1">
          <mxGeometry x="170" y="1130" width="120" height="60" as="geometry" />
        </mxCell>
        <mxCell id="JEXxJmJUqQq23T9oJtIg-43" value="1" style="text;html=1;align=center;verticalAlign=middle;resizable=0;points=[];autosize=1;strokeColor=none;fillColor=none;" vertex="1" parent="1">
          <mxGeometry x="215" y="1048" width="30" height="30" as="geometry" />
        </mxCell>
        <mxCell id="JEXxJmJUqQq23T9oJtIg-51" style="edgeStyle=orthogonalEdgeStyle;rounded=0;orthogonalLoop=1;jettySize=auto;html=1;exitX=0.5;exitY=1;exitDx=0;exitDy=0;entryX=0.5;entryY=0;entryDx=0;entryDy=0;" edge="1" parent="1" source="JEXxJmJUqQq23T9oJtIg-44" target="JEXxJmJUqQq23T9oJtIg-47">
          <mxGeometry relative="1" as="geometry" />
        </mxCell>
        <mxCell id="JEXxJmJUqQq23T9oJtIg-44" value="cout &amp;lt;&amp;lt; &quot;Все элементы были нулевыми&quot;;" style="shape=parallelogram;perimeter=parallelogramPerimeter;whiteSpace=wrap;html=1;fixedSize=1;" vertex="1" parent="1">
          <mxGeometry x="460" y="1140" width="120" height="60" as="geometry" />
        </mxCell>
        <mxCell id="JEXxJmJUqQq23T9oJtIg-46" value="0" style="text;html=1;align=center;verticalAlign=middle;resizable=0;points=[];autosize=1;strokeColor=none;fillColor=none;" vertex="1" parent="1">
          <mxGeometry x="505" y="1038" width="30" height="30" as="geometry" />
        </mxCell>
        <mxCell id="JEXxJmJUqQq23T9oJtIg-53" style="edgeStyle=orthogonalEdgeStyle;rounded=0;orthogonalLoop=1;jettySize=auto;html=1;exitX=0.5;exitY=1;exitDx=0;exitDy=0;entryX=0.5;entryY=0;entryDx=0;entryDy=0;" edge="1" parent="1" source="JEXxJmJUqQq23T9oJtIg-47" target="JEXxJmJUqQq23T9oJtIg-52">
          <mxGeometry relative="1" as="geometry" />
        </mxCell>
        <mxCell id="JEXxJmJUqQq23T9oJtIg-47" value="cout &amp;lt;&amp;lt; endl;" style="shape=parallelogram;perimeter=parallelogramPerimeter;whiteSpace=wrap;html=1;fixedSize=1;" vertex="1" parent="1">
          <mxGeometry x="180" y="1260" width="120" height="60" as="geometry" />
        </mxCell>
        <mxCell id="JEXxJmJUqQq23T9oJtIg-52" value="Конец" style="ellipse;whiteSpace=wrap;html=1;" vertex="1" parent="1">
          <mxGeometry x="180" y="1370" width="120" height="80" as="geometry" />
        </mxCell>
        <mxCell id="JEXxJmJUqQq23T9oJtIg-54" value="&lt;div&gt;&lt;span style=&quot;white-space-collapse: collapse;&quot;&gt;&lt;span style=&quot;white-space-collapse: preserve;&quot;&gt;&#x9;&lt;/span&gt;return 0;&lt;/span&gt;&lt;/div&gt;&lt;div&gt;}&lt;/div&gt;&lt;div&gt;&lt;br&gt;&lt;/div&gt;" style="strokeWidth=2;html=1;shape=mxgraph.flowchart.annotation_1;align=left;pointerEvents=1;" vertex="1" parent="1">
          <mxGeometry x="320" y="1300" width="50" height="100" as="geometry" />
        </mxCell>
        <mxCell id="JEXxJmJUqQq23T9oJtIg-55" value="" style="endArrow=none;dashed=1;html=1;dashPattern=1 3;strokeWidth=2;rounded=0;" edge="1" parent="1" source="JEXxJmJUqQq23T9oJtIg-54">
          <mxGeometry width="50" height="50" relative="1" as="geometry">
            <mxPoint x="250" y="360" as="sourcePoint" />
            <mxPoint x="240" y="1350" as="targetPoint" />
          </mxGeometry>
        </mxCell>
      </root>
    </mxGraphModel>
  </diagram>
</mxfile>
